<svg viewBox="0 0 20 9" version="1.1" xmlns="http://www.w3.org/2000/svg">
    <g id="curves" transform="matrix(1.35564,0,0,1.35564,0,0)">
        <g transform="matrix(8.96673,0,0,8.96673,-0.455342,6.52125)">
            <path d="M0.375,-0.727L0.375,-0L0.222,-0L0.222,-0.581L0.217,-0.581L0.051,-0.477L0.051,-0.613L0.231,-0.727L0.375,-0.727Z" style="fill-rule:nonzero;"/>
        </g>
        <g transform="matrix(8.96673,0,0,8.96673,2.44001,6.52125)">
            <path d="M0.375,-0.727L0.375,-0L0.222,-0L0.222,-0.581L0.217,-0.581L0.051,-0.477L0.051,-0.613L0.231,-0.727L0.375,-0.727Z" style="fill-rule:nonzero;"/>
        </g>
        <g transform="matrix(8.96673,0,0,8.96673,5.05685,6.52125)">
            <path d="M0.036,-0.6L0.036,-0.727L0.633,-0.727L0.633,-0.6L0.41,-0.6L0.41,-0L0.258,-0L0.258,-0.6L0.036,-0.6Z" style="fill-rule:nonzero;"/>
        </g>
        <g transform="matrix(8.96673,0,0,8.96673,8.2638,6.52125)">
            <path d="M0.189,-0L0.024,-0L0.275,-0.727L0.473,-0.727L0.724,-0L0.559,-0L0.377,-0.561L0.371,-0.561L0.189,-0ZM0.178,-0.286L0.567,-0.286L0.567,-0.166L0.178,-0.166L0.178,-0.286Z" style="fill-rule:nonzero;"/>
        </g>
    </g>
</svg>
